<svg xmlns="http://www.w3.org/2000/svg" fill="#e4ff30" version="1.1" x="0px" y="0px" viewBox="0 0 100 100" style="enable-background:new 0 0 100 100;" xml:space="preserve"><g><path d="M24.5,38.4l5.4,1.1c-0.5,0.8-0.8,1.7-0.8,2.4c0.1,1.8,1.6,4.3,4.2,4.3c0,0,0.1,0,0.1,0c1.9-0.1,3.4-0.7,4.3-1.8   c0.7-0.8,1-1.9,1-2.9c0,0,0,0,0,0l6.1,1.3l0.6-4.1l-20.4-4.3L24.5,38.4z"/><path d="M77.4,33.3L57,37.6l0.6,4.1l6.1-1.3c0.3,1.8,1,3.2,2.2,4c0.9,0.6,2,0.9,3,0.7c1.1-0.1,4.5-1,4-5.4c0-0.4-0.2-0.8-0.4-1.2   l5.5-1.2L77.4,33.3z"/><path d="M89.5,14.1L9.8,15.7L9.8,88.9l82.9-0.7L89.5,14.1z M16.4,50.7l1.3-19.9l66.2-2.2l2.6,21.2L16.4,50.7z"/></g></svg>